<svg width="60" height="60" viewBox="0 0 60 60" fill="none" xmlns="http://www.w3.org/2000/svg">
<path d="M29.832 29.9995C29.832 24.4768 34.2591 19.9995 39.7203 19.9995C45.1814 19.9995 49.6086 24.4768 49.6086 29.9995C49.6086 35.5224 45.1814 39.9995 39.7203 39.9995C34.2591 39.9995 29.832 35.5224 29.832 29.9995Z" fill="#1ABCFE"/>
<path d="M10.0547 49.9995C10.0547 44.4768 14.4818 39.9995 19.943 39.9995H29.8312V49.9995C29.8312 55.5224 25.4041 59.9995 19.943 59.9995C14.4818 59.9995 10.0547 55.5224 10.0547 49.9995Z" fill="#0ACF83"/>
<path d="M29.832 -0.000488281V19.9995H39.7203C45.1815 19.9995 49.6086 15.5223 49.6086 9.99951C49.6086 4.47667 45.1815 -0.000488281 39.7203 -0.000488281H29.832Z" fill="#FF7262"/>
<path d="M10.0547 9.99951C10.0547 15.5224 14.4818 19.9995 19.943 19.9995H29.8312V-0.000488281H19.943C14.4818 -0.000488281 10.0547 4.47666 10.0547 9.99951Z" fill="#F24E1E"/>
<path d="M10.0547 29.9995C10.0547 35.5224 14.4818 39.9995 19.943 39.9995H29.8312V19.9995H19.943C14.4818 19.9995 10.0547 24.4768 10.0547 29.9995Z" fill="#A259FF"/>
</svg>
