<svg width="60" height="61" viewBox="0 0 60 61" fill="none" xmlns="http://www.w3.org/2000/svg">
<g clip-path="url(#clip0_4_596)">
<path d="M4.71094 5.7207H55.4694V55.0952H4.71094V5.7207Z" fill="#2E001E"/>
<path d="M2.40625 3.41309V57.402H57.7791V3.41309H2.40625ZM4.71345 5.7203H55.4719V55.0948H4.71345V5.7203Z" fill="#FF2BC2"/>
<path d="M42.6185 26.0932C42.2724 25.9317 41.834 25.8624 41.2803 25.8624C38.3732 25.8624 36.4352 28.1004 36.4352 31.8151C36.4352 36.0603 38.4194 37.7677 41.0034 37.7677C41.5572 37.7677 42.157 37.6985 42.5954 37.5139V26.0932H42.6185ZM32.2822 31.9996C32.2822 26.6238 35.743 22.4247 41.4187 22.4247C41.9033 22.4247 42.1571 22.4247 42.6185 22.4708V16.4721C42.6185 16.3336 42.7339 16.2413 42.8492 16.2413H46.5638C46.7484 16.2413 46.7945 16.3106 46.7945 16.4259V37.5139C46.7945 38.1368 46.7945 38.9213 46.9099 39.775C46.9099 39.9365 46.9099 39.9595 46.7715 40.0288C44.8334 40.9517 42.8031 41.367 40.865 41.367C35.8584 41.367 32.2822 38.2753 32.2822 31.9996ZM24.4147 28.2619L30.8748 40.7901C30.9902 40.9747 30.921 41.1593 30.7364 41.1593H26.7219C26.4681 41.1593 26.3527 41.0901 26.2374 40.8594C24.7607 37.8138 23.2611 34.6529 21.7152 31.3767H21.6691C20.2848 34.4684 18.762 37.8369 17.2854 40.8824C17.1701 41.067 17.0547 41.1362 16.8701 41.1362H13.0402C12.8094 41.1362 12.7864 40.9517 12.9017 40.8132L19.2235 28.6542L13.1094 16.5643C12.9709 16.3798 13.1094 16.2183 13.2709 16.2183H17.2393C17.47 16.2183 17.5853 16.2644 17.6546 16.4721C19.1081 19.5407 20.5847 22.5631 21.969 25.6548H22.0152C23.3534 22.6093 24.83 19.5407 26.2374 16.5182C26.3527 16.3336 26.4219 16.2183 26.6527 16.2183H30.3672C30.5518 16.2183 30.621 16.3567 30.5057 16.5643L24.4147 28.2619Z" fill="#FF2BC2"/>
</g>
<defs>
<clipPath id="clip0_4_596">
<rect width="55.3729" height="54" fill="white" transform="translate(2.40625 3.40771)"/>
</clipPath>
</defs>
</svg>
